<?xml version="1.0" encoding="UTF-8" standalone="no"?>
<!DOCTYPE svg PUBLIC "-//W3C//DTD SVG 1.1//EN"
 "http://www.w3.org/Graphics/SVG/1.1/DTD/svg11.dtd">
<!-- Generated by graphviz version 13.1.2 (20250808.2320)
 -->
<!-- Title: printBanner Pages: 1 -->
<svg width="271pt" height="28pt"
 viewBox="0.00 0.00 271.00 28.00" xmlns="http://www.w3.org/2000/svg" xmlns:xlink="http://www.w3.org/1999/xlink">
<g id="graph0" class="graph" transform="scale(1 1) rotate(0) translate(4 24)">
<title>printBanner</title>
<!-- Node1 -->
<g id="Node000001" class="node">
<title>Node1</title>
<g id="a_Node000001"><a xlink:title="Displays startup banner with version information.">
<polygon fill="#999999" stroke="#666666" points="262.5,-20 197,-20 197,0 262.5,0 262.5,-20"/>
<text xml:space="preserve" text-anchor="middle" x="229.75" y="-6.5" font-family="Helvetica,sans-Serif" font-size="10.00">printBanner</text>
</a>
</g>
</g>
<!-- Node2 -->
<g id="Node000002" class="node">
<title>Node2</title>
<g id="a_Node000002"><a xlink:href="C4001__PresenceDetector__Enhanced_8ino.html#a19ebe9f470610e6867c7f4724aa5da9b" target="_top" xlink:title="Initializes the complete system including hardware, sensor, and timing.">
<polygon fill="white" stroke="#666666" points="161,-20 76,-20 76,0 161,0 161,-20"/>
<text xml:space="preserve" text-anchor="middle" x="118.5" y="-6.5" font-family="Helvetica,sans-Serif" font-size="10.00">initializeSystem</text>
</a>
</g>
</g>
<!-- Node1&#45;&gt;Node2 -->
<g id="edge1_Node000001_Node000002" class="edge">
<title>Node1&#45;&gt;Node2</title>
<g id="a_edge1_Node000001_Node000002"><a xlink:title=" ">
<path fill="none" stroke="#63b8ff" d="M185.26,-10C177.33,-10 169.07,-10 161.19,-10"/>
<polygon fill="#63b8ff" stroke="#63b8ff" points="185.05,-13.5 195.05,-10 185.05,-6.5 185.05,-13.5"/>
</a>
</g>
</g>
<!-- Node3 -->
<g id="Node000003" class="node">
<title>Node3</title>
<g id="a_Node000003"><a xlink:href="C4001__PresenceDetector__Enhanced_8ino.html#a4fc01d736fe50cf5b977f755b675f11d" target="_top" xlink:title="Arduino setup function &#45; called once at startup.">
<polygon fill="white" stroke="#666666" points="40,-20 0,-20 0,0 40,0 40,-20"/>
<text xml:space="preserve" text-anchor="middle" x="20" y="-6.5" font-family="Helvetica,sans-Serif" font-size="10.00">setup</text>
</a>
</g>
</g>
<!-- Node2&#45;&gt;Node3 -->
<g id="edge2_Node000002_Node000003" class="edge">
<title>Node2&#45;&gt;Node3</title>
<g id="a_edge2_Node000002_Node000003"><a xlink:title=" ">
<path fill="none" stroke="#63b8ff" d="M64.4,-10C55.8,-10 47.4,-10 40.33,-10"/>
<polygon fill="#63b8ff" stroke="#63b8ff" points="64.22,-13.5 74.22,-10 64.22,-6.5 64.22,-13.5"/>
</a>
</g>
</g>
</g>
</svg>
