<?xml version="1.0" encoding="UTF-8" standalone="no"?>
<!DOCTYPE svg PUBLIC "-//W3C//DTD SVG 1.1//EN"
 "http://www.w3.org/Graphics/SVG/1.1/DTD/svg11.dtd">
<!-- Generated by graphviz version 13.1.2 (20250808.2320)
 -->
<!-- Title: setup Pages: 1 -->
<svg width="440pt" height="218pt"
 viewBox="0.00 0.00 440.00 218.00" xmlns="http://www.w3.org/2000/svg" xmlns:xlink="http://www.w3.org/1999/xlink">

<svg id="main" version="1.1" xmlns="http://www.w3.org/2000/svg" xmlns:xlink="http://www.w3.org/1999/xlink" xml:space="preserve">

<style type="text/css"><![CDATA[
.node, .edge {opacity: 0.7;}
.node.selected, .edge.selected {opacity: 1;}
.edge:hover path { stroke: red; }
.edge:hover polygon { stroke: red; fill: red; }
]]></style>
<script type="application/ecmascript" xlink:href="svg.min.js"/>
<svg id="graph" class="graph">
<g id="graph0" class="graph" transform="scale(1 1) rotate(0) translate(4 214)">
<title>setup</title>
<!-- Node1 -->
<g id="Node000001" class="node">
<title>Node1</title>
<g id="a_Node000001"><a xlink:title="Arduino setup function &#45; called once at startup.">
<polygon fill="#999999" stroke="#666666" points="40,-115 0,-115 0,-95 40,-95 40,-115"/>
<text xml:space="preserve" text-anchor="middle" x="20" y="-101.5" font-family="Helvetica,sans-Serif" font-size="10.00">setup</text>
</a>
</g>
</g>
<!-- Node2 -->
<g id="Node000002" class="node">
<title>Node2</title>
<g id="a_Node000002"><a xlink:href="C4001__PresenceDetector__Enhanced_8ino.html#a19ebe9f470610e6867c7f4724aa5da9b" target="_top" xlink:title="Initializes the complete system including hardware, sensor, and timing.">
<polygon fill="white" stroke="#666666" points="161,-115 76,-115 76,-95 161,-95 161,-115"/>
<text xml:space="preserve" text-anchor="middle" x="118.5" y="-101.5" font-family="Helvetica,sans-Serif" font-size="10.00">initializeSystem</text>
</a>
</g>
</g>
<!-- Node1&#45;&gt;Node2 -->
<g id="edge1_Node000001_Node000002" class="edge">
<title>Node1&#45;&gt;Node2</title>
<g id="a_edge1_Node000001_Node000002"><a xlink:title=" ">
<path fill="none" stroke="#63b8ff" d="M40.07,-105C47.17,-105 55.62,-105 64.3,-105"/>
<polygon fill="#63b8ff" stroke="#63b8ff" points="64.21,-108.5 74.21,-105 64.21,-101.5 64.21,-108.5"/>
</a>
</g>
</g>
<!-- Node3 -->
<g id="Node000003" class="node">
<title>Node3</title>
<g id="a_Node000003"><a xlink:href="C4001__PresenceDetector__Enhanced_8ino.html#a1bbf01d7c19516e03b785a46ad253489" target="_top" xlink:title="Configures sensor parameters for presence detection operation.">
<polygon fill="white" stroke="#666666" points="295.12,-210 208.62,-210 208.62,-190 295.12,-190 295.12,-210"/>
<text xml:space="preserve" text-anchor="middle" x="251.88" y="-196.5" font-family="Helvetica,sans-Serif" font-size="10.00">configureSensor</text>
</a>
</g>
</g>
<!-- Node2&#45;&gt;Node3 -->
<g id="edge2_Node000002_Node000003" class="edge">
<title>Node2&#45;&gt;Node3</title>
<g id="a_edge2_Node000002_Node000003"><a xlink:title=" ">
<path fill="none" stroke="#63b8ff" d="M127.46,-115.3C140.41,-131.42 167.57,-162.66 197,-181 199.15,-182.34 201.42,-183.61 203.74,-184.79"/>
<polygon fill="#63b8ff" stroke="#63b8ff" points="202.29,-187.98 212.84,-188.9 205.17,-181.6 202.29,-187.98"/>
</a>
</g>
</g>
<!-- Node4 -->
<g id="Node000004" class="node">
<title>Node4</title>
<g id="a_Node000004"><a xlink:href="C4001__PresenceDetector__Enhanced_8ino.html#a3ea452b7c2e273c2acaf4b4cd1226551" target="_top" xlink:title="Configures GPIO pins and UART interface.">
<polygon fill="white" stroke="#666666" points="298.5,-172 205.25,-172 205.25,-152 298.5,-152 298.5,-172"/>
<text xml:space="preserve" text-anchor="middle" x="251.88" y="-158.5" font-family="Helvetica,sans-Serif" font-size="10.00">initializeHardware</text>
</a>
</g>
</g>
<!-- Node2&#45;&gt;Node4 -->
<g id="edge3_Node000002_Node000004" class="edge">
<title>Node2&#45;&gt;Node4</title>
<g id="a_edge3_Node000002_Node000004"><a xlink:title=" ">
<path fill="none" stroke="#63b8ff" d="M139.28,-115.49C154.76,-123.52 176.97,-134.59 197,-143 200.79,-144.59 204.76,-146.16 208.76,-147.68"/>
<polygon fill="#63b8ff" stroke="#63b8ff" points="207.29,-150.87 217.88,-151.04 209.7,-144.3 207.29,-150.87"/>
</a>
</g>
</g>
<!-- Node6 -->
<g id="Node000006" class="node">
<title>Node6</title>
<g id="a_Node000006"><a xlink:href="C4001__PresenceDetector__Enhanced_8ino.html#a4066fee59cab4813a54b5ea829fbc4b8" target="_top" xlink:title="Establishes communication with the C4001 mmWave sensor.">
<polygon fill="white" stroke="#666666" points="292.88,-134 210.88,-134 210.88,-114 292.88,-114 292.88,-134"/>
<text xml:space="preserve" text-anchor="middle" x="251.88" y="-120.5" font-family="Helvetica,sans-Serif" font-size="10.00">initializeSensor</text>
</a>
</g>
</g>
<!-- Node2&#45;&gt;Node6 -->
<g id="edge5_Node000002_Node000006" class="edge">
<title>Node2&#45;&gt;Node6</title>
<g id="a_edge5_Node000002_Node000006"><a xlink:title=" ">
<path fill="none" stroke="#63b8ff" d="M161.43,-111.06C173.5,-112.81 186.81,-114.74 199.39,-116.55"/>
<polygon fill="#63b8ff" stroke="#63b8ff" points="198.79,-120 209.19,-117.97 199.79,-113.08 198.79,-120"/>
</a>
</g>
</g>
<!-- Node8 -->
<g id="Node000008" class="node">
<title>Node8</title>
<g id="a_Node000008"><a xlink:href="C4001__PresenceDetector__Enhanced_8ino.html#afd103a86628d52e31c71db6179309ac0" target="_top" xlink:title="Displays startup banner with version information.">
<polygon fill="white" stroke="#666666" points="284.62,-96 219.12,-96 219.12,-76 284.62,-76 284.62,-96"/>
<text xml:space="preserve" text-anchor="middle" x="251.88" y="-82.5" font-family="Helvetica,sans-Serif" font-size="10.00">printBanner</text>
</a>
</g>
</g>
<!-- Node2&#45;&gt;Node8 -->
<g id="edge7_Node000002_Node000008" class="edge">
<title>Node2&#45;&gt;Node8</title>
<g id="a_edge7_Node000002_Node000008"><a xlink:title=" ">
<path fill="none" stroke="#63b8ff" d="M161.43,-98.94C176.27,-96.79 192.98,-94.37 207.91,-92.21"/>
<polygon fill="#63b8ff" stroke="#63b8ff" points="208.02,-95.73 217.41,-90.84 207.01,-88.81 208.02,-95.73"/>
</a>
</g>
</g>
<!-- Node9 -->
<g id="Node000009" class="node">
<title>Node9</title>
<g id="a_Node000009"><a xlink:href="C4001__PresenceDetector__Enhanced_8ino.html#a46f11da4f5c73c8ee975083968e25202" target="_top" xlink:title="Prints a horizontal line separator for visual formatting.">
<polygon fill="white" stroke="#666666" points="290.25,-58 213.5,-58 213.5,-38 290.25,-38 290.25,-58"/>
<text xml:space="preserve" text-anchor="middle" x="251.88" y="-44.5" font-family="Helvetica,sans-Serif" font-size="10.00">printSeparator</text>
</a>
</g>
</g>
<!-- Node2&#45;&gt;Node9 -->
<g id="edge8_Node000002_Node000009" class="edge">
<title>Node2&#45;&gt;Node9</title>
<g id="a_edge8_Node000002_Node000009"><a xlink:title=" ">
<path fill="none" stroke="#63b8ff" d="M139.28,-94.51C154.76,-86.48 176.97,-75.41 197,-67 200.79,-65.41 204.76,-63.84 208.76,-62.32"/>
<polygon fill="#63b8ff" stroke="#63b8ff" points="209.7,-65.7 217.88,-58.96 207.29,-59.13 209.7,-65.7"/>
</a>
</g>
</g>
<!-- Node10 -->
<g id="Node000010" class="node">
<title>Node10</title>
<g id="a_Node000010"><a xlink:href="C4001__PresenceDetector__Enhanced_8ino.html#ab8ad5111ed93fe6c07e357b7820ba46d" target="_top" xlink:title="Displays comprehensive system configuration table.">
<polygon fill="white" stroke="#666666" points="306.75,-20 197,-20 197,0 306.75,0 306.75,-20"/>
<text xml:space="preserve" text-anchor="middle" x="251.88" y="-6.5" font-family="Helvetica,sans-Serif" font-size="10.00">showConfigSummary</text>
</a>
</g>
</g>
<!-- Node2&#45;&gt;Node10 -->
<g id="edge9_Node000002_Node000010" class="edge">
<title>Node2&#45;&gt;Node10</title>
<g id="a_edge9_Node000002_Node000010"><a xlink:title=" ">
<path fill="none" stroke="#63b8ff" d="M127.46,-94.7C140.41,-78.58 167.57,-47.34 197,-29 199.15,-27.66 201.42,-26.39 203.74,-25.21"/>
<polygon fill="#63b8ff" stroke="#63b8ff" points="205.17,-28.4 212.84,-21.1 202.29,-22.02 205.17,-28.4"/>
</a>
</g>
</g>
<!-- Node5 -->
<g id="Node000005" class="node">
<title>Node5</title>
<g id="a_Node000005"><a xlink:href="C4001__PresenceDetector__Enhanced_8ino.html#a8b4babcb1b5677eaf9b45d99d0f35162" target="_top" xlink:title="Clears UART receive buffer of startup garbage data.">
<polygon fill="white" stroke="#666666" points="432.25,-172 342.75,-172 342.75,-152 432.25,-152 432.25,-172"/>
<text xml:space="preserve" text-anchor="middle" x="387.5" y="-158.5" font-family="Helvetica,sans-Serif" font-size="10.00">flushUARTBuffer</text>
</a>
</g>
</g>
<!-- Node4&#45;&gt;Node5 -->
<g id="edge4_Node000004_Node000005" class="edge">
<title>Node4&#45;&gt;Node5</title>
<g id="a_edge4_Node000004_Node000005"><a xlink:title=" ">
<path fill="none" stroke="#63b8ff" d="M298.86,-162C309.28,-162 320.46,-162 331.22,-162"/>
<polygon fill="#63b8ff" stroke="#63b8ff" points="331.17,-165.5 341.17,-162 331.17,-158.5 331.17,-165.5"/>
</a>
</g>
</g>
<!-- Node7 -->
<g id="Node000007" class="node">
<title>Node7</title>
<g id="a_Node000007"><a xlink:href="C4001__PresenceDetector__Enhanced_8ino.html#a960c58e545f44c47776b31c4842c4a79" target="_top" xlink:title="Blinks LED rapidly to indicate fatal error condition.">
<polygon fill="white" stroke="#666666" points="425.88,-134 349.12,-134 349.12,-114 425.88,-114 425.88,-134"/>
<text xml:space="preserve" text-anchor="middle" x="387.5" y="-120.5" font-family="Helvetica,sans-Serif" font-size="10.00">errorBlinkLED</text>
</a>
</g>
</g>
<!-- Node6&#45;&gt;Node7 -->
<g id="edge6_Node000006_Node000007" class="edge">
<title>Node6&#45;&gt;Node7</title>
<g id="a_edge6_Node000006_Node000007"><a xlink:title=" ">
<path fill="none" stroke="#63b8ff" d="M293.33,-124C307.27,-124 323.03,-124 337.58,-124"/>
<polygon fill="#63b8ff" stroke="#63b8ff" points="337.41,-127.5 347.41,-124 337.41,-120.5 337.41,-127.5"/>
</a>
</g>
</g>
</g>
</svg>
</svg>

<style type='text/css'>
<![CDATA[
[data-mouse-over-selected='false'] { opacity: 0.7; }
[data-mouse-over-selected='true']  { opacity: 1.0; }
]]>
</style>
<script type="application/ecmascript"><![CDATA[
document.addEventListener('DOMContentLoaded', (event) => {
  highlightEdges();
  highlightAdjacentNodes();
});
]]></script>
</svg>
