<?xml version="1.0" encoding="UTF-8" standalone="no"?>
<!DOCTYPE svg PUBLIC "-//W3C//DTD SVG 1.1//EN"
 "http://www.w3.org/Graphics/SVG/1.1/DTD/svg11.dtd">
<!-- Generated by graphviz version 13.1.2 (20250808.2320)
 -->
<!-- Title: initializeSystem Pages: 1 -->
<svg width="364pt" height="218pt"
 viewBox="0.00 0.00 364.00 218.00" xmlns="http://www.w3.org/2000/svg" xmlns:xlink="http://www.w3.org/1999/xlink">
<g id="graph0" class="graph" transform="scale(1 1) rotate(0) translate(4 214)">
<title>initializeSystem</title>
<!-- Node1 -->
<g id="Node000001" class="node">
<title>Node1</title>
<g id="a_Node000001"><a xlink:title="Initializes the complete system including hardware, sensor, and timing.">
<polygon fill="#999999" stroke="#666666" points="85,-115 0,-115 0,-95 85,-95 85,-115"/>
<text xml:space="preserve" text-anchor="middle" x="42.5" y="-101.5" font-family="Helvetica,sans-Serif" font-size="10.00">initializeSystem</text>
</a>
</g>
</g>
<!-- Node2 -->
<g id="Node000002" class="node">
<title>Node2</title>
<g id="a_Node000002"><a xlink:href="C4001__PresenceDetector__Enhanced_8ino.html#a1bbf01d7c19516e03b785a46ad253489" target="_top" xlink:title="Configures sensor parameters for presence detection operation.">
<polygon fill="white" stroke="#666666" points="219.12,-210 132.62,-210 132.62,-190 219.12,-190 219.12,-210"/>
<text xml:space="preserve" text-anchor="middle" x="175.88" y="-196.5" font-family="Helvetica,sans-Serif" font-size="10.00">configureSensor</text>
</a>
</g>
</g>
<!-- Node1&#45;&gt;Node2 -->
<g id="edge1_Node000001_Node000002" class="edge">
<title>Node1&#45;&gt;Node2</title>
<g id="a_edge1_Node000001_Node000002"><a xlink:title=" ">
<path fill="none" stroke="#63b8ff" d="M51.46,-115.3C64.41,-131.42 91.57,-162.66 121,-181 123.15,-182.34 125.42,-183.61 127.74,-184.79"/>
<polygon fill="#63b8ff" stroke="#63b8ff" points="126.29,-187.98 136.84,-188.9 129.17,-181.6 126.29,-187.98"/>
</a>
</g>
</g>
<!-- Node3 -->
<g id="Node000003" class="node">
<title>Node3</title>
<g id="a_Node000003"><a xlink:href="C4001__PresenceDetector__Enhanced_8ino.html#a3ea452b7c2e273c2acaf4b4cd1226551" target="_top" xlink:title="Configures GPIO pins and UART interface.">
<polygon fill="white" stroke="#666666" points="222.5,-172 129.25,-172 129.25,-152 222.5,-152 222.5,-172"/>
<text xml:space="preserve" text-anchor="middle" x="175.88" y="-158.5" font-family="Helvetica,sans-Serif" font-size="10.00">initializeHardware</text>
</a>
</g>
</g>
<!-- Node1&#45;&gt;Node3 -->
<g id="edge2_Node000001_Node000003" class="edge">
<title>Node1&#45;&gt;Node3</title>
<g id="a_edge2_Node000001_Node000003"><a xlink:title=" ">
<path fill="none" stroke="#63b8ff" d="M63.28,-115.49C78.76,-123.52 100.97,-134.59 121,-143 124.79,-144.59 128.76,-146.16 132.76,-147.68"/>
<polygon fill="#63b8ff" stroke="#63b8ff" points="131.29,-150.87 141.88,-151.04 133.7,-144.3 131.29,-150.87"/>
</a>
</g>
</g>
<!-- Node5 -->
<g id="Node000005" class="node">
<title>Node5</title>
<g id="a_Node000005"><a xlink:href="C4001__PresenceDetector__Enhanced_8ino.html#a4066fee59cab4813a54b5ea829fbc4b8" target="_top" xlink:title="Establishes communication with the C4001 mmWave sensor.">
<polygon fill="white" stroke="#666666" points="216.88,-134 134.88,-134 134.88,-114 216.88,-114 216.88,-134"/>
<text xml:space="preserve" text-anchor="middle" x="175.88" y="-120.5" font-family="Helvetica,sans-Serif" font-size="10.00">initializeSensor</text>
</a>
</g>
</g>
<!-- Node1&#45;&gt;Node5 -->
<g id="edge4_Node000001_Node000005" class="edge">
<title>Node1&#45;&gt;Node5</title>
<g id="a_edge4_Node000001_Node000005"><a xlink:title=" ">
<path fill="none" stroke="#63b8ff" d="M85.43,-111.06C97.5,-112.81 110.81,-114.74 123.39,-116.55"/>
<polygon fill="#63b8ff" stroke="#63b8ff" points="122.79,-120 133.19,-117.97 123.79,-113.08 122.79,-120"/>
</a>
</g>
</g>
<!-- Node7 -->
<g id="Node000007" class="node">
<title>Node7</title>
<g id="a_Node000007"><a xlink:href="C4001__PresenceDetector__Enhanced_8ino.html#afd103a86628d52e31c71db6179309ac0" target="_top" xlink:title="Displays startup banner with version information.">
<polygon fill="white" stroke="#666666" points="208.62,-96 143.12,-96 143.12,-76 208.62,-76 208.62,-96"/>
<text xml:space="preserve" text-anchor="middle" x="175.88" y="-82.5" font-family="Helvetica,sans-Serif" font-size="10.00">printBanner</text>
</a>
</g>
</g>
<!-- Node1&#45;&gt;Node7 -->
<g id="edge6_Node000001_Node000007" class="edge">
<title>Node1&#45;&gt;Node7</title>
<g id="a_edge6_Node000001_Node000007"><a xlink:title=" ">
<path fill="none" stroke="#63b8ff" d="M85.43,-98.94C100.27,-96.79 116.98,-94.37 131.91,-92.21"/>
<polygon fill="#63b8ff" stroke="#63b8ff" points="132.02,-95.73 141.41,-90.84 131.01,-88.81 132.02,-95.73"/>
</a>
</g>
</g>
<!-- Node8 -->
<g id="Node000008" class="node">
<title>Node8</title>
<g id="a_Node000008"><a xlink:href="C4001__PresenceDetector__Enhanced_8ino.html#a46f11da4f5c73c8ee975083968e25202" target="_top" xlink:title="Prints a horizontal line separator for visual formatting.">
<polygon fill="white" stroke="#666666" points="214.25,-58 137.5,-58 137.5,-38 214.25,-38 214.25,-58"/>
<text xml:space="preserve" text-anchor="middle" x="175.88" y="-44.5" font-family="Helvetica,sans-Serif" font-size="10.00">printSeparator</text>
</a>
</g>
</g>
<!-- Node1&#45;&gt;Node8 -->
<g id="edge7_Node000001_Node000008" class="edge">
<title>Node1&#45;&gt;Node8</title>
<g id="a_edge7_Node000001_Node000008"><a xlink:title=" ">
<path fill="none" stroke="#63b8ff" d="M63.28,-94.51C78.76,-86.48 100.97,-75.41 121,-67 124.79,-65.41 128.76,-63.84 132.76,-62.32"/>
<polygon fill="#63b8ff" stroke="#63b8ff" points="133.7,-65.7 141.88,-58.96 131.29,-59.13 133.7,-65.7"/>
</a>
</g>
</g>
<!-- Node9 -->
<g id="Node000009" class="node">
<title>Node9</title>
<g id="a_Node000009"><a xlink:href="C4001__PresenceDetector__Enhanced_8ino.html#ab8ad5111ed93fe6c07e357b7820ba46d" target="_top" xlink:title="Displays comprehensive system configuration table.">
<polygon fill="white" stroke="#666666" points="230.75,-20 121,-20 121,0 230.75,0 230.75,-20"/>
<text xml:space="preserve" text-anchor="middle" x="175.88" y="-6.5" font-family="Helvetica,sans-Serif" font-size="10.00">showConfigSummary</text>
</a>
</g>
</g>
<!-- Node1&#45;&gt;Node9 -->
<g id="edge8_Node000001_Node000009" class="edge">
<title>Node1&#45;&gt;Node9</title>
<g id="a_edge8_Node000001_Node000009"><a xlink:title=" ">
<path fill="none" stroke="#63b8ff" d="M51.46,-94.7C64.41,-78.58 91.57,-47.34 121,-29 123.15,-27.66 125.42,-26.39 127.74,-25.21"/>
<polygon fill="#63b8ff" stroke="#63b8ff" points="129.17,-28.4 136.84,-21.1 126.29,-22.02 129.17,-28.4"/>
</a>
</g>
</g>
<!-- Node4 -->
<g id="Node000004" class="node">
<title>Node4</title>
<g id="a_Node000004"><a xlink:href="C4001__PresenceDetector__Enhanced_8ino.html#a8b4babcb1b5677eaf9b45d99d0f35162" target="_top" xlink:title="Clears UART receive buffer of startup garbage data.">
<polygon fill="white" stroke="#666666" points="356.25,-172 266.75,-172 266.75,-152 356.25,-152 356.25,-172"/>
<text xml:space="preserve" text-anchor="middle" x="311.5" y="-158.5" font-family="Helvetica,sans-Serif" font-size="10.00">flushUARTBuffer</text>
</a>
</g>
</g>
<!-- Node3&#45;&gt;Node4 -->
<g id="edge3_Node000003_Node000004" class="edge">
<title>Node3&#45;&gt;Node4</title>
<g id="a_edge3_Node000003_Node000004"><a xlink:title=" ">
<path fill="none" stroke="#63b8ff" d="M222.86,-162C233.28,-162 244.46,-162 255.22,-162"/>
<polygon fill="#63b8ff" stroke="#63b8ff" points="255.17,-165.5 265.17,-162 255.17,-158.5 255.17,-165.5"/>
</a>
</g>
</g>
<!-- Node6 -->
<g id="Node000006" class="node">
<title>Node6</title>
<g id="a_Node000006"><a xlink:href="C4001__PresenceDetector__Enhanced_8ino.html#a960c58e545f44c47776b31c4842c4a79" target="_top" xlink:title="Blinks LED rapidly to indicate fatal error condition.">
<polygon fill="white" stroke="#666666" points="349.88,-134 273.12,-134 273.12,-114 349.88,-114 349.88,-134"/>
<text xml:space="preserve" text-anchor="middle" x="311.5" y="-120.5" font-family="Helvetica,sans-Serif" font-size="10.00">errorBlinkLED</text>
</a>
</g>
</g>
<!-- Node5&#45;&gt;Node6 -->
<g id="edge5_Node000005_Node000006" class="edge">
<title>Node5&#45;&gt;Node6</title>
<g id="a_edge5_Node000005_Node000006"><a xlink:title=" ">
<path fill="none" stroke="#63b8ff" d="M217.33,-124C231.27,-124 247.03,-124 261.58,-124"/>
<polygon fill="#63b8ff" stroke="#63b8ff" points="261.41,-127.5 271.41,-124 261.41,-120.5 261.41,-127.5"/>
</a>
</g>
</g>
</g>
</svg>
