<?xml version="1.0" encoding="UTF-8" standalone="no"?>
<!DOCTYPE svg PUBLIC "-//W3C//DTD SVG 1.1//EN"
 "http://www.w3.org/Graphics/SVG/1.1/DTD/svg11.dtd">
<!-- Generated by graphviz version 13.1.2 (20250808.2320)
 -->
<!-- Title: loop Pages: 1 -->
<svg width="339pt" height="256pt"
 viewBox="0.00 0.00 339.00 256.00" xmlns="http://www.w3.org/2000/svg" xmlns:xlink="http://www.w3.org/1999/xlink">
<g id="graph0" class="graph" transform="scale(1 1) rotate(0) translate(4 252)">
<title>loop</title>
<!-- Node1 -->
<g id="Node000001" class="node">
<title>Node1</title>
<g id="a_Node000001"><a xlink:title="Arduino main loop &#45; called repeatedly during operation.">
<polygon fill="#999999" stroke="#666666" points="34,-134 0,-134 0,-114 34,-114 34,-134"/>
<text xml:space="preserve" text-anchor="middle" x="17" y="-120.5" font-family="Helvetica,sans-Serif" font-size="10.00">loop</text>
</a>
</g>
</g>
<!-- Node2 -->
<g id="Node000002" class="node">
<title>Node2</title>
<g id="a_Node000002"><a xlink:href="C4001__PresenceDetector__Enhanced_8ino.html#a25381b1b18a522d997bbf30a2d45876b" target="_top" xlink:title="Evaluates sensor reading and applies debouncing logic.">
<polygon fill="white" stroke="#666666" points="175.25,-248 80.5,-248 80.5,-228 175.25,-228 175.25,-248"/>
<text xml:space="preserve" text-anchor="middle" x="127.88" y="-234.5" font-family="Helvetica,sans-Serif" font-size="10.00">evaluateDetection</text>
</a>
</g>
</g>
<!-- Node1&#45;&gt;Node2 -->
<g id="edge1_Node000001_Node000002" class="edge">
<title>Node1&#45;&gt;Node2</title>
<g id="a_edge1_Node000001_Node000002"><a xlink:title=" ">
<path fill="none" stroke="#63b8ff" d="M20.84,-134.2C26.74,-153.55 42.16,-195.73 70,-219 71.27,-220.06 72.61,-221.07 73.99,-222.02"/>
<polygon fill="#63b8ff" stroke="#63b8ff" points="71.96,-224.89 82.39,-226.77 75.41,-218.8 71.96,-224.89"/>
</a>
</g>
</g>
<!-- Node4 -->
<g id="Node000004" class="node">
<title>Node4</title>
<g id="a_Node000004"><a xlink:href="C4001__PresenceDetector__Enhanced_8ino.html#a5e73315fa6d13b583c1112e9ebec55b3" target="_top" xlink:title="Displays 30&#45;second data quality statistics summary.">
<polygon fill="white" stroke="#666666" points="185.75,-210 70,-210 70,-190 185.75,-190 185.75,-210"/>
<text xml:space="preserve" text-anchor="middle" x="127.88" y="-196.5" font-family="Helvetica,sans-Serif" font-size="10.00">printDataQualityReport</text>
</a>
</g>
</g>
<!-- Node1&#45;&gt;Node4 -->
<g id="edge3_Node000001_Node000004" class="edge">
<title>Node1&#45;&gt;Node4</title>
<g id="a_edge3_Node000001_Node000004"><a xlink:title=" ">
<path fill="none" stroke="#63b8ff" d="M24.88,-134.33C33.85,-147.02 50.69,-168.44 70,-181 72.09,-182.36 74.29,-183.63 76.56,-184.82"/>
<polygon fill="#63b8ff" stroke="#63b8ff" points="74.89,-187.91 85.44,-188.88 77.8,-181.54 74.89,-187.91"/>
</a>
</g>
</g>
<!-- Node5 -->
<g id="Node000005" class="node">
<title>Node5</title>
<g id="a_Node000005"><a xlink:href="C4001__PresenceDetector__Enhanced_8ino.html#aa77a3d194f0e83053a2e727dc0c70044" target="_top" xlink:title="Captures and displays raw UART data from sensor.">
<polygon fill="white" stroke="#666666" points="168.88,-172 86.88,-172 86.88,-152 168.88,-152 168.88,-172"/>
<text xml:space="preserve" text-anchor="middle" x="127.88" y="-158.5" font-family="Helvetica,sans-Serif" font-size="10.00">printRawUART</text>
</a>
</g>
</g>
<!-- Node1&#45;&gt;Node5 -->
<g id="edge4_Node000001_Node000005" class="edge">
<title>Node1&#45;&gt;Node5</title>
<g id="a_edge4_Node000001_Node000005"><a xlink:title=" ">
<path fill="none" stroke="#63b8ff" d="M34.35,-130.11C44.57,-133.89 58.02,-138.81 70,-143 74.66,-144.63 79.54,-146.31 84.41,-147.96"/>
<polygon fill="#63b8ff" stroke="#63b8ff" points="82.91,-151.15 93.5,-151.02 85.14,-144.51 82.91,-151.15"/>
</a>
</g>
</g>
<!-- Node6 -->
<g id="Node000006" class="node">
<title>Node6</title>
<g id="a_Node000006"><a xlink:href="C4001__PresenceDetector__Enhanced_8ino.html#a4d3f95b51b1fc43b8743adb9226cec64" target="_top" xlink:title="Displays formatted notification when detection state changes.">
<polygon fill="white" stroke="#666666" points="173.75,-134 82,-134 82,-114 173.75,-114 173.75,-134"/>
<text xml:space="preserve" text-anchor="middle" x="127.88" y="-120.5" font-family="Helvetica,sans-Serif" font-size="10.00">printStateChange</text>
</a>
</g>
</g>
<!-- Node1&#45;&gt;Node6 -->
<g id="edge5_Node000001_Node000006" class="edge">
<title>Node1&#45;&gt;Node6</title>
<g id="a_edge5_Node000001_Node000006"><a xlink:title=" ">
<path fill="none" stroke="#63b8ff" d="M34.06,-124C43.86,-124 57.03,-124 70.37,-124"/>
<polygon fill="#63b8ff" stroke="#63b8ff" points="70.03,-127.5 80.03,-124 70.03,-120.5 70.03,-127.5"/>
</a>
</g>
</g>
<!-- Node7 -->
<g id="Node000007" class="node">
<title>Node7</title>
<g id="a_Node000007"><a xlink:href="C4001__PresenceDetector__Enhanced_8ino.html#a86c4904064d4551310d6a770cf67f2f6" target="_top" xlink:title="Displays detailed single&#45;line sensor status for continuous monitoring.">
<polygon fill="white" stroke="#666666" points="177.12,-96 78.62,-96 78.62,-76 177.12,-76 177.12,-96"/>
<text xml:space="preserve" text-anchor="middle" x="127.88" y="-82.5" font-family="Helvetica,sans-Serif" font-size="10.00">printVerboseStatus</text>
</a>
</g>
</g>
<!-- Node1&#45;&gt;Node7 -->
<g id="edge6_Node000001_Node000007" class="edge">
<title>Node1&#45;&gt;Node7</title>
<g id="a_edge6_Node000001_Node000007"><a xlink:title=" ">
<path fill="none" stroke="#63b8ff" d="M34.35,-117.89C44.57,-114.11 58.02,-109.19 70,-105 74.66,-103.37 79.54,-101.69 84.41,-100.04"/>
<polygon fill="#63b8ff" stroke="#63b8ff" points="85.14,-103.49 93.5,-96.98 82.91,-96.85 85.14,-103.49"/>
</a>
</g>
</g>
<!-- Node8 -->
<g id="Node000008" class="node">
<title>Node8</title>
<g id="a_Node000008"><a xlink:href="C4001__PresenceDetector__Enhanced_8ino.html#ac630ebbcd076c30fa5bc1da98340dc33" target="_top" xlink:title="Reads current sensor data and validates quality.">
<polygon fill="white" stroke="#666666" points="160.62,-58 95.12,-58 95.12,-38 160.62,-38 160.62,-58"/>
<text xml:space="preserve" text-anchor="middle" x="127.88" y="-44.5" font-family="Helvetica,sans-Serif" font-size="10.00">readSensor</text>
</a>
</g>
</g>
<!-- Node1&#45;&gt;Node8 -->
<g id="edge7_Node000001_Node000008" class="edge">
<title>Node1&#45;&gt;Node8</title>
<g id="a_edge7_Node000001_Node000008"><a xlink:title=" ">
<path fill="none" stroke="#63b8ff" d="M24.88,-113.67C33.85,-100.98 50.69,-79.56 70,-67 74.46,-64.1 79.4,-61.6 84.45,-59.46"/>
<polygon fill="#63b8ff" stroke="#63b8ff" points="85.32,-62.87 93.45,-56.08 82.86,-56.32 85.32,-62.87"/>
</a>
</g>
</g>
<!-- Node9 -->
<g id="Node000009" class="node">
<title>Node9</title>
<g id="a_Node000009"><a xlink:href="C4001__PresenceDetector__Enhanced_8ino.html#a291b66c49deda2119b8af1e4d4be3b38" target="_top" xlink:title="Updates LED state based on detection status.">
<polygon fill="white" stroke="#666666" points="160.25,-20 95.5,-20 95.5,0 160.25,0 160.25,-20"/>
<text xml:space="preserve" text-anchor="middle" x="127.88" y="-6.5" font-family="Helvetica,sans-Serif" font-size="10.00">updateLED</text>
</a>
</g>
</g>
<!-- Node1&#45;&gt;Node9 -->
<g id="edge8_Node000001_Node000009" class="edge">
<title>Node1&#45;&gt;Node9</title>
<g id="a_edge8_Node000001_Node000009"><a xlink:title=" ">
<path fill="none" stroke="#63b8ff" d="M20.84,-113.8C26.74,-94.45 42.16,-52.27 70,-29 74.38,-25.34 79.5,-22.37 84.83,-19.98"/>
<polygon fill="#63b8ff" stroke="#63b8ff" points="85.7,-23.39 93.8,-16.56 83.21,-16.85 85.7,-23.39"/>
</a>
</g>
</g>
<!-- Node3 -->
<g id="Node000003" class="node">
<title>Node3</title>
<g id="a_Node000003"><a xlink:href="C4001__PresenceDetector__Enhanced_8ino.html#ab2c97e57ef65c7179c9117548b03bc83" target="_top" xlink:title="Performs additional UART verification reads to confirm detection.">
<polygon fill="white" stroke="#666666" points="330.75,-248 221.75,-248 221.75,-228 330.75,-228 330.75,-248"/>
<text xml:space="preserve" text-anchor="middle" x="276.25" y="-234.5" font-family="Helvetica,sans-Serif" font-size="10.00">verifyDetectionUART</text>
</a>
</g>
</g>
<!-- Node2&#45;&gt;Node3 -->
<g id="edge2_Node000002_Node000003" class="edge">
<title>Node2&#45;&gt;Node3</title>
<g id="a_edge2_Node000002_Node000003"><a xlink:title=" ">
<path fill="none" stroke="#63b8ff" d="M175.59,-238C186.51,-238 198.34,-238 209.9,-238"/>
<polygon fill="#63b8ff" stroke="#63b8ff" points="209.82,-241.5 219.82,-238 209.82,-234.5 209.82,-241.5"/>
</a>
</g>
</g>
</g>
</svg>
