<?xml version="1.0" encoding="UTF-8" standalone="no"?>
<!DOCTYPE svg PUBLIC "-//W3C//DTD SVG 1.1//EN"
 "http://www.w3.org/Graphics/SVG/1.1/DTD/svg11.dtd">
<!-- Generated by graphviz version 13.1.2 (20250808.2320)
 -->
<!-- Title: DataQuality Pages: 1 -->
<svg width="211pt" height="230pt"
 viewBox="0.00 0.00 211.00 230.00" xmlns="http://www.w3.org/2000/svg" xmlns:xlink="http://www.w3.org/1999/xlink">

<svg id="main" version="1.1" xmlns="http://www.w3.org/2000/svg" xmlns:xlink="http://www.w3.org/1999/xlink" xml:space="preserve">

<style type="text/css"><![CDATA[
.node, .edge {opacity: 0.7;}
.node.selected, .edge.selected {opacity: 1;}
.edge:hover path { stroke: red; }
.edge:hover polygon { stroke: red; fill: red; }
]]></style>
<script type="application/ecmascript" xlink:href="svg.min.js"/>
<svg id="graph" class="graph">
<g id="graph0" class="graph" transform="scale(1 1) rotate(0) translate(4 226)">
<title>DataQuality</title>
<!-- Node1 -->
<g id="Node000001" class="node">
<title>Node1</title>
<g id="a_Node000001"><a xlink:title="Tracks data quality statistics over 30&#45;second intervals.">
<polygon fill="#999999" stroke="none" points="104.12,-52 44.38,-52 44.38,0 104.12,0 104.12,-52"/>
<text xml:space="preserve" text-anchor="start" x="48.38" y="-38.5" font-family="Helvetica,sans-Serif" font-size="10.00">DataQuality</text>
<text xml:space="preserve" text-anchor="start" x="72.75" y="-22.5" font-family="Helvetica,sans-Serif" font-size="10.00"> </text>
<text xml:space="preserve" text-anchor="start" x="72.75" y="-6.5" font-family="Helvetica,sans-Serif" font-size="10.00"> </text>
<polygon fill="#666666" stroke="#666666" points="44.38,-34 44.38,-34 104.12,-34 104.12,-34 44.38,-34"/>
<polygon fill="#666666" stroke="#666666" points="44.38,-18 44.38,-18 104.12,-18 104.12,-18 44.38,-18"/>
<polygon fill="none" stroke="#666666" points="44.38,0 44.38,-52 104.12,-52 104.12,0 44.38,0"/>
</a>
</g>
</g>
<!-- Node2 -->
<g id="Node000002" class="node">
<title>Node2</title>
<g id="a_Node000002"><a xlink:title=" ">
<polygon fill="white" stroke="none" points="42.5,-222 0,-222 0,-170 42.5,-170 42.5,-222"/>
<text xml:space="preserve" text-anchor="start" x="4" y="-208.5" font-family="Helvetica,sans-Serif" font-size="10.00">uint32_t</text>
<text xml:space="preserve" text-anchor="start" x="19.75" y="-192.5" font-family="Helvetica,sans-Serif" font-size="10.00"> </text>
<text xml:space="preserve" text-anchor="start" x="19.75" y="-176.5" font-family="Helvetica,sans-Serif" font-size="10.00"> </text>
<polygon fill="#666666" stroke="#666666" points="0,-204 0,-204 42.5,-204 42.5,-204 0,-204"/>
<polygon fill="#666666" stroke="#666666" points="0,-188 0,-188 42.5,-188 42.5,-188 0,-188"/>
<polygon fill="none" stroke="#666666" points="0,-170 0,-222 42.5,-222 42.5,-170 0,-170"/>
</a>
</g>
</g>
<!-- Node2&#45;&gt;Node1 -->
<g id="edge1_Node000001_Node000002" class="edge">
<title>Node2&#45;&gt;Node1</title>
<g id="a_edge1_Node000001_Node000002"><a xlink:title=" ">
<path fill="none" stroke="#63b8ff" d="M15.46,-170.14C10.65,-143.88 6.8,-101.94 22,-70 25.06,-63.57 29.6,-57.77 34.75,-52.67"/>
<polygon fill="none" stroke="#63b8ff" points="34.73,-52.69 36.65,-45.74 43.8,-44.84 41.88,-51.79 34.73,-52.69"/>
</a>
</g>
<text xml:space="preserve" text-anchor="start" x="25" y="-139.5" font-family="Helvetica,sans-Serif" font-size="10.00" fill="grey">+corruptedEnergy</text>
<text xml:space="preserve" text-anchor="start" x="25" y="-123.5" font-family="Helvetica,sans-Serif" font-size="10.00" fill="grey">+detectionCount</text>
<text xml:space="preserve" text-anchor="start" x="25" y="-107.5" font-family="Helvetica,sans-Serif" font-size="10.00" fill="grey">+outOfRange</text>
<text xml:space="preserve" text-anchor="start" x="25" y="-91.5" font-family="Helvetica,sans-Serif" font-size="10.00" fill="grey">+totalReadings</text>
<text xml:space="preserve" text-anchor="start" x="25" y="-75.5" font-family="Helvetica,sans-Serif" font-size="10.00" fill="grey">+validReadings</text>
</g>
<!-- Node3 -->
<g id="Node000003" class="node">
<title>Node3</title>
<g id="a_Node000003"><a xlink:title=" ">
<polygon fill="white" stroke="none" points="161.25,-222 93.25,-222 93.25,-170 161.25,-170 161.25,-222"/>
<text xml:space="preserve" text-anchor="start" x="97.25" y="-208.5" font-family="Helvetica,sans-Serif" font-size="10.00">unsigned long</text>
<text xml:space="preserve" text-anchor="start" x="125.75" y="-192.5" font-family="Helvetica,sans-Serif" font-size="10.00"> </text>
<text xml:space="preserve" text-anchor="start" x="125.75" y="-176.5" font-family="Helvetica,sans-Serif" font-size="10.00"> </text>
<polygon fill="#666666" stroke="#666666" points="93.25,-204 93.25,-204 161.25,-204 161.25,-204 93.25,-204"/>
<polygon fill="#666666" stroke="#666666" points="93.25,-188 93.25,-188 161.25,-188 161.25,-188 93.25,-188"/>
<polygon fill="none" stroke="#666666" points="93.25,-170 93.25,-222 161.25,-222 161.25,-170 93.25,-170"/>
</a>
</g>
</g>
<!-- Node3&#45;&gt;Node1 -->
<g id="edge2_Node000001_Node000003" class="edge">
<title>Node3&#45;&gt;Node1</title>
<g id="a_edge2_Node000001_Node000003"><a xlink:title=" ">
<path fill="none" stroke="#63b8ff" d="M126.14,-170.12C124.25,-144.21 119.13,-102.89 105.25,-70 104.22,-67.55 103.02,-65.1 101.71,-62.69"/>
<polygon fill="none" stroke="#63b8ff" points="101.75,-62.76 95.19,-59.76 95.44,-52.55 101.99,-55.55 101.75,-62.76"/>
</a>
</g>
<text xml:space="preserve" text-anchor="start" x="127.48" y="-107.5" font-family="Helvetica,sans-Serif" font-size="10.00" fill="grey">+lastReportTime</text>
</g>
</g>
</svg>
</svg>

<style type='text/css'>
<![CDATA[
[data-mouse-over-selected='false'] { opacity: 0.7; }
[data-mouse-over-selected='true']  { opacity: 1.0; }
]]>
</style>
<script type="application/ecmascript"><![CDATA[
document.addEventListener('DOMContentLoaded', (event) => {
  highlightEdges();
  highlightAdjacentNodes();
});
]]></script>
</svg>
