<?xml version="1.0" encoding="UTF-8" standalone="no"?>
<!DOCTYPE svg PUBLIC "-//W3C//DTD SVG 1.1//EN"
 "http://www.w3.org/Graphics/SVG/1.1/DTD/svg11.dtd">
<!-- Generated by graphviz version 13.1.2 (20250808.2320)
 -->
<!-- Title: SensorReading Pages: 1 -->
<svg width="365pt" height="182pt"
 viewBox="0.00 0.00 365.00 182.00" xmlns="http://www.w3.org/2000/svg" xmlns:xlink="http://www.w3.org/1999/xlink">

<svg id="main" version="1.1" xmlns="http://www.w3.org/2000/svg" xmlns:xlink="http://www.w3.org/1999/xlink" xml:space="preserve">

<style type="text/css"><![CDATA[
.node, .edge {opacity: 0.7;}
.node.selected, .edge.selected {opacity: 1;}
.edge:hover path { stroke: red; }
.edge:hover polygon { stroke: red; fill: red; }
]]></style>
<script type="application/ecmascript" xlink:href="svg.min.js"/>
<svg id="graph" class="graph">
<g id="graph0" class="graph" transform="scale(1 1) rotate(0) translate(4 178)">
<title>SensorReading</title>
<!-- Node1 -->
<g id="Node000001" class="node">
<title>Node1</title>
<g id="a_Node000001"><a xlink:title="Contains complete sensor reading with validation flags.">
<polygon fill="#999999" stroke="none" points="186,-52 111.25,-52 111.25,0 186,0 186,-52"/>
<text xml:space="preserve" text-anchor="start" x="115.25" y="-38.5" font-family="Helvetica,sans-Serif" font-size="10.00">SensorReading</text>
<text xml:space="preserve" text-anchor="start" x="147.12" y="-22.5" font-family="Helvetica,sans-Serif" font-size="10.00"> </text>
<text xml:space="preserve" text-anchor="start" x="147.12" y="-6.5" font-family="Helvetica,sans-Serif" font-size="10.00"> </text>
<polygon fill="#666666" stroke="#666666" points="111.25,-34 111.25,-34 186,-34 186,-34 111.25,-34"/>
<polygon fill="#666666" stroke="#666666" points="111.25,-18 111.25,-18 186,-18 186,-18 111.25,-18"/>
<polygon fill="none" stroke="#666666" points="111.25,0 111.25,-52 186,-52 186,0 111.25,0"/>
</a>
</g>
</g>
<!-- Node2 -->
<g id="Node000002" class="node">
<title>Node2</title>
<g id="a_Node000002"><a xlink:title=" ">
<polygon fill="white" stroke="none" points="37.25,-174 0,-174 0,-122 37.25,-122 37.25,-174"/>
<text xml:space="preserve" text-anchor="start" x="4" y="-160.5" font-family="Helvetica,sans-Serif" font-size="10.00">uint8_t</text>
<text xml:space="preserve" text-anchor="start" x="17.12" y="-144.5" font-family="Helvetica,sans-Serif" font-size="10.00"> </text>
<text xml:space="preserve" text-anchor="start" x="17.12" y="-128.5" font-family="Helvetica,sans-Serif" font-size="10.00"> </text>
<polygon fill="#666666" stroke="#666666" points="0,-156 0,-156 37.25,-156 37.25,-156 0,-156"/>
<polygon fill="#666666" stroke="#666666" points="0,-140 0,-140 37.25,-140 37.25,-140 0,-140"/>
<polygon fill="none" stroke="#666666" points="0,-122 0,-174 37.25,-174 37.25,-122 0,-122"/>
</a>
</g>
</g>
<!-- Node2&#45;&gt;Node1 -->
<g id="edge1_Node000001_Node000002" class="edge">
<title>Node2&#45;&gt;Node1</title>
<g id="a_edge1_Node000001_Node000002"><a xlink:title=" ">
<path fill="none" stroke="#63b8ff" d="M17.13,-122.16C17.45,-105.62 20.58,-84.37 32.62,-70 49.1,-50.35 75.44,-39.68 98.86,-33.88"/>
<polygon fill="none" stroke="#63b8ff" points="98.88,-33.88 103.89,-28.69 110.61,-31.33 105.59,-36.51 98.88,-33.88"/>
</a>
</g>
<text xml:space="preserve" text-anchor="start" x="35.62" y="-83.5" font-family="Helvetica,sans-Serif" font-size="10.00" fill="grey">+targetCount</text>
</g>
<!-- Node3 -->
<g id="Node000003" class="node">
<title>Node3</title>
<g id="a_Node000003"><a xlink:title=" ">
<polygon fill="white" stroke="none" points="118,-174 91.25,-174 91.25,-122 118,-122 118,-174"/>
<text xml:space="preserve" text-anchor="start" x="95.25" y="-160.5" font-family="Helvetica,sans-Serif" font-size="10.00">float</text>
<text xml:space="preserve" text-anchor="start" x="103.12" y="-144.5" font-family="Helvetica,sans-Serif" font-size="10.00"> </text>
<text xml:space="preserve" text-anchor="start" x="103.12" y="-128.5" font-family="Helvetica,sans-Serif" font-size="10.00"> </text>
<polygon fill="#666666" stroke="#666666" points="91.25,-156 91.25,-156 118,-156 118,-156 91.25,-156"/>
<polygon fill="#666666" stroke="#666666" points="91.25,-140 91.25,-140 118,-140 118,-140 91.25,-140"/>
<polygon fill="none" stroke="#666666" points="91.25,-122 91.25,-174 118,-174 118,-122 91.25,-122"/>
</a>
</g>
</g>
<!-- Node3&#45;&gt;Node1 -->
<g id="edge2_Node000001_Node000003" class="edge">
<title>Node3&#45;&gt;Node1</title>
<g id="a_edge2_Node000001_Node000003"><a xlink:title=" ">
<path fill="none" stroke="#63b8ff" d="M100.19,-122.1C98.53,-106.53 98.47,-86.38 105.38,-70 106.56,-67.2 108.01,-64.49 109.67,-61.88"/>
<polygon fill="none" stroke="#63b8ff" points="109.58,-62.01 110.06,-54.81 116.89,-52.49 116.4,-59.69 109.58,-62.01"/>
</a>
</g>
<text xml:space="preserve" text-anchor="start" x="108.38" y="-91.5" font-family="Helvetica,sans-Serif" font-size="10.00" fill="grey">+targetRange</text>
<text xml:space="preserve" text-anchor="start" x="108.38" y="-75.5" font-family="Helvetica,sans-Serif" font-size="10.00" fill="grey">+targetSpeed</text>
</g>
<!-- Node4 -->
<g id="Node000004" class="node">
<title>Node4</title>
<g id="a_Node000004"><a xlink:title=" ">
<polygon fill="white" stroke="none" points="213.88,-174 171.38,-174 171.38,-122 213.88,-122 213.88,-174"/>
<text xml:space="preserve" text-anchor="start" x="175.38" y="-160.5" font-family="Helvetica,sans-Serif" font-size="10.00">uint32_t</text>
<text xml:space="preserve" text-anchor="start" x="191.12" y="-144.5" font-family="Helvetica,sans-Serif" font-size="10.00"> </text>
<text xml:space="preserve" text-anchor="start" x="191.12" y="-128.5" font-family="Helvetica,sans-Serif" font-size="10.00"> </text>
<polygon fill="#666666" stroke="#666666" points="171.38,-156 171.38,-156 213.88,-156 213.88,-156 171.38,-156"/>
<polygon fill="#666666" stroke="#666666" points="171.38,-140 171.38,-140 213.88,-140 213.88,-140 171.38,-140"/>
<polygon fill="none" stroke="#666666" points="171.38,-122 171.38,-174 213.88,-174 213.88,-122 171.38,-122"/>
</a>
</g>
</g>
<!-- Node4&#45;&gt;Node1 -->
<g id="edge3_Node000001_Node000004" class="edge">
<title>Node4&#45;&gt;Node1</title>
<g id="a_edge3_Node000001_Node000004"><a xlink:title=" ">
<path fill="none" stroke="#63b8ff" d="M186.88,-122.32C183,-107.01 177.36,-87.07 170.62,-70 169.76,-67.81 168.83,-65.59 167.84,-63.36"/>
<polygon fill="none" stroke="#63b8ff" points="167.8,-63.28 161.61,-59.58 162.65,-52.45 168.84,-56.15 167.8,-63.28"/>
</a>
</g>
<text xml:space="preserve" text-anchor="start" x="184.74" y="-83.5" font-family="Helvetica,sans-Serif" font-size="10.00" fill="grey">+targetEnergy</text>
</g>
<!-- Node5 -->
<g id="Node000005" class="node">
<title>Node5</title>
<g id="a_Node000005"><a xlink:title=" ">
<polygon fill="white" stroke="none" points="296.62,-174 270.62,-174 270.62,-122 296.62,-122 296.62,-174"/>
<text xml:space="preserve" text-anchor="start" x="274.62" y="-160.5" font-family="Helvetica,sans-Serif" font-size="10.00">bool</text>
<text xml:space="preserve" text-anchor="start" x="282.12" y="-144.5" font-family="Helvetica,sans-Serif" font-size="10.00"> </text>
<text xml:space="preserve" text-anchor="start" x="282.12" y="-128.5" font-family="Helvetica,sans-Serif" font-size="10.00"> </text>
<polygon fill="#666666" stroke="#666666" points="270.62,-156 270.62,-156 296.62,-156 296.62,-156 270.62,-156"/>
<polygon fill="#666666" stroke="#666666" points="270.62,-140 270.62,-140 296.62,-140 296.62,-140 270.62,-140"/>
<polygon fill="none" stroke="#666666" points="270.62,-122 270.62,-174 296.62,-174 296.62,-122 270.62,-122"/>
</a>
</g>
</g>
<!-- Node5&#45;&gt;Node1 -->
<g id="edge4_Node000001_Node000005" class="edge">
<title>Node5&#45;&gt;Node1</title>
<g id="a_edge4_Node000001_Node000005"><a xlink:title=" ">
<path fill="none" stroke="#63b8ff" d="M279.23,-122C275.14,-105.39 267.5,-84.12 253.62,-70 238.67,-54.79 217.58,-44.75 198.23,-38.23"/>
<polygon fill="none" stroke="#63b8ff" points="198.17,-38.22 191.26,-40.29 186.7,-34.7 193.61,-32.64 198.17,-38.22"/>
</a>
</g>
<text xml:space="preserve" text-anchor="start" x="276.11" y="-91.5" font-family="Helvetica,sans-Serif" font-size="10.00" fill="grey">+energyCorrupted</text>
<text xml:space="preserve" text-anchor="start" x="276.11" y="-75.5" font-family="Helvetica,sans-Serif" font-size="10.00" fill="grey">+valid</text>
</g>
</g>
</svg>
</svg>

<style type='text/css'>
<![CDATA[
[data-mouse-over-selected='false'] { opacity: 0.7; }
[data-mouse-over-selected='true']  { opacity: 1.0; }
]]>
</style>
<script type="application/ecmascript"><![CDATA[
document.addEventListener('DOMContentLoaded', (event) => {
  highlightEdges();
  highlightAdjacentNodes();
});
]]></script>
</svg>
